<svg width="660" height="709" viewBox="0 0 660 709" xmlns="http://www.w3.org/2000/svg">
  <title>
    Music Note
  </title>
  <path d="M410.622 169.88V46.142c0-4.92-4.396-8.68-9.257-7.916L199.875 69.85c-5.355.843-9.302 5.455-9.302 10.877v421.516c-22.64-12.025-50.947-16.97-79.975-11.333C51.165 502.243 11.522 552.468 21.416 602c9.896 49.534 65.82 80.656 124.566 69.354 52.358-9.896 89.87-50.253 90.59-93.4V206.45L401.6 180.436c5.194-.82 9.022-5.298 9.022-10.557m162.297 33.114c-3.802 0-6.883 3.08-6.883 6.882v73.982c0 3.8 3.08 6.882 6.882 6.882 3.802 0 6.882-3.082 6.882-6.882v-73.982c0-3.8-3.08-6.882-6.883-6.882m60.06 312.383c-.18-.015-.36-.022-.54-.022-3.56 0-6.574 2.742-6.854 6.35-1.632 21.01-11.89 41.112-28.202 57.06l-.004.003-.046.048c-.13.126-.262.25-.39.38h-.004l-.045.043-.005.006c-.016.014-.03.026-.043.042l-.01.008-.04.038c-.003.003-.007.005-.01.01-.012.014-.028.028-.042.042-.1.094-.197.19-.296.283h-.002c-.016.013-.03.027-.043.043l-.01.006c-.014.015-.028.03-.045.04l-.002.006c-.016.014-.03.03-.048.045l-.004.004c-.015.014-.03.03-.046.043v.002l-.294.276c-.002.003-.004.003-.006.007l-.04.037c-.004.006-.008.006-.01.01-.017.013-.03.027-.042.04-.006.004-.01.006-.012.01-.013.013-.023.023-.038.035-.004.005-.01.01-.014.012l-.038.04c-.003 0-.01.005-.01.007-.014.012-.03.027-.042.04l-.01.01-.24.223-.004.004c-.012.01-.028.025-.038.037-.007.007-.01.007-.016.014-.012.013-.025.025-.037.035-.007.005-.01.01-.015.012-.01.012-.026.024-.038.038l-.014.012c-.014.01-.024.022-.038.034l-.013.015-.038.033-.018.017-.036.034-.01.008c-.06.055-.122.112-.182.17-.004.002-.01.005-.012.01-.014.01-.026.023-.037.035-.007.005-.01.005-.016.01-.014.014-.026.024-.04.036-.003.005-.01.01-.012.015l-.036.03c-.008.006-.012.01-.02.02-.012.008-.02.02-.03.03-.008.004-.017.01-.024.016-.01.012-.022.022-.032.032l-.018.017-.036.03c-.005.006-.01.01-.014.012-.012.014-.025.026-.04.038l-.01.01-.177.16-.02.02c-.01.008-.023.02-.03.03-.008.002-.017.01-.024.018-.01.008-.02.02-.03.027-.007.007-.017.016-.024.02l-.03.03c-.01.007-.013.01-.02.02-.012.008-.022.018-.032.028l-.024.02-.03.027-.024.024c-.01.005-.02.015-.03.024l-.028.026c-.007.008-.016.015-.024.022l-.036.033c-.013.01-.02.016-.03.026l-.04.035-.023.02c-.01.012-.02.022-.033.03l-.022.02c-.013.01-.02.02-.03.03l-.024.02c-.01.008-.024.018-.033.03l-.024.02c-.01.01-.02.018-.032.025l-.022.023-.033.03-.022.018c-.01.01-.02.02-.033.03-.007.008-.012.013-.02.018-.01.01-.025.022-.035.03l-.02.02c-.015.01-.025.022-.04.034-.002.004-.01.01-.014.012l-.056.05-.006.007c-.016.012-.035.03-.05.043-.004.004-.007.005-.01.01l-.044.037-.02.017c-.012.012-.02.02-.035.032-.005.006-.012.01-.02.018-.01.007-.024.022-.035.03-.005.006-.012.013-.017.016-.014.014-.026.024-.04.033l-.017.017c-.01.01-.024.022-.036.03l-.022.02c-.01.008-.024.024-.036.033l-.018.015c-.013.014-.03.026-.044.04-.004 0-.007.005-.01.006-.04.035-.07.064-.11.1-.008.004-.01.007-.016.012l-.042.035-.015.015-.04.034-.02.014c-.012.012-.022.023-.036.033-.005.007-.013.014-.02.017-.01.01-.024.02-.035.03-.006.006-.015.015-.023.02-.01.01-.024.02-.035.03-.006.005-.013.01-.018.017l-.038.035-.02.014-.042.038c-.002.002-.01.007-.01.01-.057.047-.114.097-.17.145l-.01.01-.048.038c-.003.007-.008.01-.013.013-.013.012-.028.026-.04.035l-.017.015c-.014.01-.03.026-.043.038-.004.005-.007.006-.01.012-.018.01-.032.024-.047.037-.003 0-.007.005-.01.008-.02.015-.03.028-.05.04l-.007.008-.056.048-.002.002c-.076.062-.155.13-.23.194-.002.004-.006.006-.01.01l-.047.04-.01.007c-.014.014-.032.028-.047.04-.004.003-.007.007-.01.008-.018.016-.03.028-.05.043l-.007.006-.047.04c-.006.004-.007.006-.01.01l-.05.04-.007.008c-.097.08-.195.16-.29.244l-.005.003c-.016.015-.037.03-.052.044-.002 0-.003.004-.005.004l-.054.044-.01.007-.05.04-.006.007c-.017.016-.034.028-.053.043l-.003.004-.117.1c-2.925 2.427-3.326 6.765-.896 9.69 1.36 1.637 3.322 2.484 5.298 2.484 1.55 0 3.11-.52 4.394-1.59 23.536-19.547 37.66-45.32 39.774-72.57.294-3.788-2.54-7.098-6.33-7.39m-68.898-376.202c-.824 0-1.66.066-2.504.2l-32.696 5.19c-3.753.596-6.31 4.123-5.718 7.875.54 3.39 3.466 5.805 6.79 5.805.36 0 .72-.026 1.088-.086l32.694-5.19c.12-.02.234-.03.346-.03.943 0 1.955.802 1.955 1.993v13.65c0 3.8 3.08 6.882 6.882 6.882 3.802 0 6.882-3.08 6.882-6.882v-13.65c0-8.83-7.198-15.757-15.72-15.757m68.605 260.378c-3.8 0-6.883 3.08-6.883 6.882v73.982c0 3.802 3.082 6.882 6.883 6.882 3.8 0 6.882-3.08 6.882-6.882v-73.982c0-3.8-3.082-6.882-6.883-6.882m0-345.824c-3.8 0-6.883 3.082-6.883 6.882v73.982c0 3.8 3.082 6.882 6.883 6.882 3.8 0 6.882-3.08 6.882-6.882V60.612c0-3.8-3.082-6.882-6.883-6.882m0 115.275c-3.8 0-6.883 3.08-6.883 6.882v73.982c0 3.8 3.082 6.88 6.883 6.88 3.8 0 6.882-3.08 6.882-6.88v-73.983c0-3.8-3.082-6.882-6.883-6.882m0 115.274c-3.8 0-6.883 3.08-6.883 6.88v73.984c0 3.802 3.082 6.882 6.883 6.882 3.8 0 6.882-3.08 6.882-6.882V291.16c0-3.8-3.082-6.88-6.883-6.88m-75.32 320.377c-.777 0-1.568.134-2.343.412-.117.044-.232.084-.347.127l-.005.002c-.05.014-.093.03-.14.048l-.14.05h-.003l-.07.026-.072.024c-2.78.988-5.62 1.884-8.512 2.688h-.003l-.07.02-.004.002-.065.015-.012.004c-.02.007-.04.012-.06.017-.007.002-.01.004-.016.004l-.056.017-.02.005-.055.015-.017.006-.057.014c-.003.002-.013.006-.02.007-.017.005-.036.012-.05.015l-.024.007c-.017.003-.036.01-.05.014l-.027.007-.05.013-.025.005c-.017.007-.035.012-.05.015-.01.004-.02.005-.028.01-.017.002-.032.007-.048.01-.01.004-.02.008-.03.01l-.045.012-.034.01-.04.008-.028.01-.048.013c-.01.002-.023.005-.03.008l-.044.01c-.026.008-.052.016-.078.02 0 .003-.005.003-.008.003l-.066.016-.03.01c-.014.004-.03.008-.047.01l-.03.01c-.014.005-.03.008-.046.013-.007 0-.016.003-.025.004-.018.007-.033.01-.052.014l-.028.007-.048.014c-.01 0-.02.004-.03.006l-.046.014c-.01 0-.02.005-.03.008l-.05.012-.023.005-.053.014c-.007 0-.016.004-.024.006l-.052.014c-.007 0-.015.003-.022.005l-.055.015-.023.006c-.022.006-.036.008-.058.015l-.016.004c-.022.006-.04.01-.062.018-.005 0-.01 0-.015.003l-.062.017c-.004 0-.01.002-.013.004l-.063.015-.016.006-.07.016s-.002.002-.006.002c-.022.007-.046.012-.07.02h-.007c-.26.067-.518.133-.78.196 0 0 0 .002-.003.002l-.155.04c-.026.007-.053.012-.077.017l-.076.018c-.002.002-.003.002-.005.002-1.935.478-3.89.91-5.87 1.305-.002 0-.004 0-.007.002-.023.005-.052.01-.073.016h-.008c-.026.007-.045.01-.07.012-.004 0-.008.003-.013.003l-.068.014-.012.002-.067.013c-.003.002-.01.002-.014.004-.02.004-.044.01-.064.013-.007.002-.012.003-.02.003-.017.004-.04.01-.058.012l-.02.005-.064.01c-.005 0-.01.003-.016.003-.017.005-.04.01-.062.013-.005 0-.012 0-.017.003-.023.003-.04.007-.063.012-.005.002-.01.002-.017.003l-.06.012c-.007 0-.014.002-.02.004l-.063.012h-.017l-.058.014c-.007 0-.014.003-.02.003-.03.005-.044.01-.07.014h-.01c-.026.007-.055.012-.08.017-8.147 1.567-16.234 2.32-24.158 2.32H510.61c-.015-.003-.03-.003-.046-.003h-.508c-.012 0-.015 0-.025-.002h-.135c-.016-.002-.033-.002-.05-.002H509.607c-.016 0-.033 0-.05-.003H509.41c-.007-.002-.018-.002-.023-.002H509.174c-.017-.002-.035-.002-.054-.002h-.022c-.014-.002-.028-.002-.043-.002h-.093c-.018-.002-.04-.002-.06-.002h-.135c-.013-.003-.02-.003-.033-.003H508.595c-.016-.003-.03-.003-.048-.003h-.096c-.01 0-.025 0-.037-.003h-.03l-.042-.002H508.234c-.013 0-.026-.003-.04-.003h-.067c-.01-.003-.02-.003-.03-.003-.013 0-.027 0-.04-.002H507.943c-.012-.003-.025-.003-.037-.003h-.035c-.01 0-.02 0-.03-.002h-.034c-.01-.002-.02-.002-.033-.002h-.076l-.048-.003h-.032l-.036-.002h-.094c-.013-.003-.025-.003-.037-.003l-.03-.002h-.053c-.014-.002-.026-.002-.038-.002h-.066c-.012 0-.023-.003-.033-.003-.01 0-.02 0-.03-.002h-.06l-.14-.004c-.006-.002-.013-.002-.022-.002h-.122l-.15-.007H506.647c-.005 0-.01-.003-.017-.003l-.046-.002h-.012c-.055 0-.107-.003-.16-.007h-.067c-.02-.003-.033-.003-.05-.003h-.01l-.22-.01h-.007c-.02 0-.035 0-.05-.002h-.012c-.02-.002-.033-.002-.052-.002h-.003l-.17-.008-.05-.002h-.013l-.052-.004h-.002c-.055 0-.113-.005-.167-.006h-.005l-.052-.004h-.007l-.052-.002h-.002c-.074-.005-.153-.008-.227-.012h-.005c-7.882-.373-15.568-1.496-22.93-3.296-.552-.134-1.1-.2-1.643-.2-3.095 0-5.91 2.106-6.677 5.25-.906 3.692 1.357 7.417 5.048 8.32 10.396 2.543 21.202 3.833 32.12 3.833 8.906 0 17.907-.863 26.76-2.568 7.438-1.405 14.82-3.424 21.9-5.99 3.576-1.293 5.422-5.24 4.126-8.813-1.014-2.8-3.657-4.54-6.472-4.54M435.86 46.533c.354 0 .714-.027 1.075-.084l61.17-9.892c3.74-.604 6.292-4.12 5.7-7.868-.535-3.39-3.46-5.81-6.79-5.81-.356 0-.717.027-1.082.084l-61.137 9.888c-3.756.592-6.32 4.115-5.726 7.87.533 3.39 3.46 5.81 6.79 5.81m-1.663 126.83c.36 0 .723-.027 1.088-.084l54.972-8.645c3.754-.597 6.315-4.12 5.717-7.875-.538-3.39-3.463-5.805-6.79-5.805-.357 0-.72.03-1.087.086l-29.69 4.713-.067.01c-.12.02-.234.037-.354.056l-.06.01-.25.04-24.568 3.816c-3.742.606-6.294 4.126-5.7 7.873.538 3.387 3.465 5.803 6.79 5.803M537.79 30.21c.356 0 .716-.027 1.08-.085l70.916-11.187c.737-.117 1.468-.174 2.19-.174H612.117c.007.002.016.002.024.002h.071c.01.002.02.002.03.002H612.35l.03.003H612.42c.01.003.018.003.027.003h.073c.01.003.02.003.03.003 0 0 .003 0 .005.002h.033l.03.002H612.655l.03.003h.005c.01.002.02.002.03.002h.038c.01.003.017.003.027.003.004 0 .006 0 .01.002.008 0 .016 0 .027.002h.039c.012.003.02.003.03.003h.002c.01 0 .017 0 .028.002h.007l.03.002h.034l.004.002.03.002h.03c.002.003.005.003.007.003l.03.002h.007c.01 0 .02 0 .027.002h.002l.03.002.008.002h.03c.01.003.02.003.03.005h.005c.01.003.02.003.03.004h.004l.027.004h.005l.03.003h.006c.01 0 .02.003.03.005h.002c.01 0 .02 0 .03.003h.006l.06.007h.005l.062.007c.002 0 .004 0 .006.002.01 0 .02 0 .03.003h.003l.028.003h.008c.008.002.02.004.027.004l.005.002h.03c.012.003.022.003.032.005h.005c.02.004.04.008.062.01h.005l.06.008c0 .002.003.002.005.002.01 0 .02 0 .03.003l.003.002.027.003h.005l.03.005h.005l.06.01h.003c.023.004.043.008.064.01h.003c.02.005.042.006.062.01h.006l.03.007.032.003.032.005h.002l.033.007.03.005h.004c.022.004.044.007.063.012h.003l.062.01.002.002.033.006h.002c.01 0 .02.003.03.006l.03.006h.005c.02.005.04.008.062.012h.003l.062.012h.002l.226.048c.022.005.043.008.064.014l.162.037.063.016h.002l.064.015c.15.038.3.075.448.118 1.526.427 2.95 1.11 4.226 2.007 1.2.837 2.576 1.243 3.937 1.243 2.17 0 4.302-1.022 5.64-2.93 2.185-3.112 1.43-7.405-1.68-9.588C623.132 6.73 617.66 5 611.975 5c-1.444 0-2.9.114-4.334.34l-70.915 11.19c-3.754.59-6.318 4.116-5.725 7.87.536 3.39 3.462 5.81 6.79 5.81M466.524 426.77c-.985 0-1.984.214-2.934.66-26.42 12.482-47.277 32.724-58.732 56.997-1.62 3.436-.15 7.538 3.288 9.16.95.448 1.948.66 2.934.66 2.58 0 5.054-1.458 6.23-3.948 9.912-21.012 28.3-39.153 52.16-50.423 3.435-1.625 4.907-5.727 3.282-9.164-1.173-2.486-3.647-3.944-6.228-3.944m107.14-3.38c-15.582-6.2-32.553-9.44-49.796-9.44-5.39 0-10.847.32-16.226.95-3.556.417-6.423 3.448-6.325 7.027.102 3.826 3.225 6.72 6.873 6.72.27 0 .547-.016.824-.05l.37-.042h.008l.176-.022c.005 0 .012 0 .017-.002l.08-.008.02-.004c.02-.002.043-.003.063-.007l.025-.003.072-.007.034-.005.046-.005c.02-.002.04-.002.06-.006.012-.002.026-.004.036-.004l.043-.005c.012 0 .022 0 .033-.003l.077-.008c.007-.003.014-.003.02-.005 4.552-.5 9.07-.745 13.534-.75h.138c15.543.002 30.454 2.913 43.9 8.15 1.667.647 3.928 1.66 6.044 2.643 2.796 1.3 5.99-.747 5.99-3.83v-2.168c0-4.005-2.418-7.637-6.14-9.118m-.743-105.124c-3.802 0-6.883 3.082-6.883 6.882v73.982c0 3.8 3.08 6.882 6.882 6.882 3.802 0 6.882-3.08 6.882-6.882V325.15c0-3.8-3.08-6.882-6.883-6.882m-128.1 274.15c-9.582-6.882-17.667-15.312-23.705-24.988l-.003-.005c-.01-.016-.02-.03-.03-.05l-.005-.002c-.01-.017-.02-.03-.027-.046l-.005-.007-.03-.047-.003-.005-.03-.046c0-.006 0-.006-.003-.01-.01-.013-.02-.028-.028-.044-.002 0-.006-.007-.006-.008l-.027-.042-.008-.012c-.007-.012-.015-.027-.024-.04l-.01-.013c-.007-.012-.014-.026-.023-.038 0-.005-.007-.012-.01-.017-.007-.01-.014-.024-.02-.036l-.01-.014-.025-.04-.007-.012c-.01-.013-.015-.027-.024-.043l-.008-.008c-.01-.014-.017-.028-.026-.043l-.008-.01c-.007-.014-.018-.028-.024-.044l-.006-.008-.027-.045-.003-.005-.03-.05-.004-.003c-.007-.016-.015-.03-.026-.045l-.007-.012-.026-.04c0-.005-.003-.007-.006-.012-.007-.014-.016-.03-.024-.04l-.007-.01c-.007-.015-.018-.03-.026-.044 0-.006-.004-.01-.006-.012-.01-.013-.014-.026-.022-.038l-.01-.016-.023-.038-.01-.013-.022-.04c-.004-.005-.005-.01-.01-.012-.006-.014-.016-.03-.023-.04-.003-.006-.005-.012-.008-.015l-.023-.036c-.003-.007-.007-.01-.008-.017l-.023-.037-.01-.017-.022-.038-.01-.012c-.005-.015-.012-.027-.022-.04l-.007-.015-.023-.038c-.004-.006-.004-.008-.01-.015l-.023-.04c0-.003-.003-.008-.007-.012l-.024-.043-.007-.008-.024-.045c0-.002-.005-.007-.007-.01l-.024-.04c0-.003-.004-.01-.007-.014-.007-.013-.018-.03-.026-.04l-.005-.01c-.007-.015-.016-.03-.024-.044-.002-.003-.006-.008-.007-.012-.008-.012-.016-.03-.025-.043l-.007-.01-.022-.04-.007-.013c-.012-.016-.018-.03-.03-.043l-.002-.012-.026-.044c-.002-.004-.003-.006-.005-.007l-.026-.045c0-.002-.004-.01-.006-.01l-.02-.036c-.004-.006-.01-.012-.01-.018-.008-.015-.016-.03-.025-.04l-.006-.01-.03-.053-.003-.002c-.09-.16-.183-.32-.276-.483v-.002c-.012-.017-.02-.032-.03-.05-.002-.005-.002-.007-.006-.012l-.024-.04-.005-.01c-.01-.013-.02-.032-.025-.046l-.007-.01-.024-.043-.012-.02c-.005-.01-.012-.02-.02-.03-.004-.01-.01-.018-.01-.028-.008-.01-.013-.018-.018-.028l-.012-.02-.02-.035c-.003-.006-.008-.012-.01-.02-.008-.01-.012-.022-.02-.032l-.01-.022c-.008-.01-.013-.02-.02-.03l-.012-.024-.02-.033c0-.007-.004-.01-.007-.018l-.02-.038-.013-.018c-.005-.012-.012-.022-.02-.034-.004-.01-.007-.016-.013-.024-.003-.01-.008-.017-.013-.028-.006-.008-.012-.02-.018-.03-.003-.008-.008-.014-.013-.023l-.016-.03-.014-.025c-.005-.007-.01-.017-.015-.028l-.014-.025-.017-.028c-.003-.01-.01-.018-.014-.025-.005-.01-.012-.024-.015-.034l-.014-.018c-.005-.012-.01-.02-.017-.03l-.012-.025c-.007-.01-.012-.02-.02-.03-.003-.008-.004-.017-.01-.024-.005-.012-.012-.02-.017-.03-.003-.008-.008-.016-.012-.023-.007-.01-.014-.022-.02-.035-.002-.006-.007-.012-.01-.018l-.016-.03-.014-.026-.017-.028-.015-.026c-.003-.008-.01-.018-.015-.027-.002-.008-.007-.018-.013-.027l-.015-.03-.016-.025-.013-.026-.016-.03c-.005-.006-.008-.015-.014-.025-.005-.008-.008-.017-.015-.026-.003-.007-.01-.02-.016-.026-.003-.01-.008-.017-.013-.026-.006-.01-.013-.022-.017-.033-.003-.007-.008-.013-.012-.02-.004-.01-.01-.02-.016-.03-.003-.01-.01-.017-.014-.027-.005-.007-.01-.02-.015-.028-.005-.008-.01-.015-.012-.024l-.016-.03-.014-.023-.017-.033-.012-.02-.015-.03-.015-.027c-.005-.01-.012-.02-.016-.03-.006-.008-.01-.013-.014-.022-.005-.01-.01-.02-.018-.03l-.008-.02-.02-.038c-.004-.005-.008-.01-.01-.016l-.018-.036c-.004-.007-.01-.015-.012-.022-.007-.01-.01-.02-.018-.033l-.01-.02c-.007-.01-.012-.023-.02-.033-.002-.007-.006-.012-.01-.02-.004-.01-.01-.025-.018-.035l-.01-.02c-.004-.008-.012-.023-.016-.034-.005-.007-.01-.013-.014-.022-.007-.01-.01-.02-.017-.03l-.01-.02c-.007-.014-.01-.023-.017-.035l-.01-.016c-.006-.016-.013-.028-.02-.042l-.008-.012c-.005-.012-.016-.027-.02-.04l-.01-.02-.018-.034c-.004-.007-.007-.01-.01-.018l-.02-.038-.008-.013-.02-.043c-.003-.002-.003-.004-.004-.007-.01-.014-.018-.03-.024-.047l-.007-.01-.023-.045c-.007-.018-.018-.037-.026-.052v-.003c-.02-.037-.04-.07-.054-.107l-.004-.005-.055-.102-.055-.11h-.002c-.148-.288-.294-.58-.438-.868 0-.002-.002-.002-.002-.003l-.052-.106v-.004c-.02-.036-.038-.072-.055-.108-.01-.02-.02-.036-.027-.055l-.026-.052v-.005c-.01-.017-.02-.033-.028-.05v-.003l-.025-.05c-.002 0-.002-.004-.004-.005-.008-.02-.014-.035-.024-.054-.01-.017-.018-.036-.027-.05 0-.003 0-.006-.003-.006-.01-.018-.017-.036-.026-.054-.007-.017-.015-.036-.024-.05l-.002-.006-.026-.052v-.004c-.008-.013-.02-.032-.024-.048 0-.003-.003-.005-.005-.008l-.022-.045c0-.005-.003-.007-.004-.01l-.02-.043-.008-.014-.02-.043c0-.004-.004-.01-.006-.01l-.02-.047-.006-.01-.024-.045c0-.002 0-.005-.003-.01-.006-.016-.013-.03-.022-.043 0-.004-.003-.01-.005-.012-.008-.018-.014-.028-.02-.045l-.007-.01c-.007-.016-.014-.03-.02-.047-.003-.002-.003-.007-.005-.008l-.02-.045-.006-.01c-.005-.014-.016-.03-.022-.045l-.006-.01c-.006-.016-.015-.033-.02-.045 0-.004-.002-.007-.004-.01-.007-.014-.017-.033-.022-.05-.002 0-.003-.002-.003-.006l-.026-.05v-.003l-.023-.05-.002-.005c-.01-.018-.017-.037-.024-.05 0-.003 0-.003-.003-.006-.007-.017-.015-.035-.024-.052v-.005l-.024-.05c-.003-.002-.003-.002-.003-.005l-.024-.048c0-.004-.003-.005-.003-.01-.01-.016-.017-.03-.024-.047l-.002-.005c-.007-.02-.014-.033-.024-.05v-.003l-.026-.056c-1.69-3.64-3.11-7.42-4.238-11.332v-.002c-.273-.95-.528-1.913-.77-2.878v-.002c-.008-.04-.02-.082-.028-.122h-.002c-.003-.02-.007-.04-.014-.06-.003-.02-.008-.036-.013-.057v-.004c-.008-.02-.012-.036-.017-.057v-.004l-.014-.055c-.002 0-.002-.003-.002-.004l-.014-.06c-.004-.02-.01-.035-.012-.054l-.004-.012-.012-.048V544c-.005-.016-.01-.033-.013-.048l-.004-.012-.013-.05-.003-.01-.01-.05c-.002-.002-.002-.01-.002-.013-.004-.017-.01-.03-.012-.048 0-.003-.002-.01-.004-.013-.003-.015-.007-.033-.012-.048 0-.006-.002-.01-.003-.013l-.01-.05c0-.005 0-.01-.003-.012l-.01-.046c-.002-.008-.004-.013-.004-.02-.005-.014-.01-.028-.012-.043v-.016l-.01-.044-.006-.015-.01-.046c0-.005-.002-.008-.004-.013l-.01-.047c-.002-.006-.004-.01-.004-.014l-.01-.048-.003-.015c-.004-.014-.007-.03-.013-.047v-.015l-.012-.045c0-.005 0-.01-.003-.015l-.01-.045-.005-.02-.01-.04c0-.007-.003-.012-.004-.02l-.01-.042c0-.007-.002-.012-.004-.02l-.01-.042-.004-.016-.008-.044c-.002-.007-.004-.014-.004-.02l-.01-.042c-.002-.007-.004-.012-.004-.02l-.01-.042c-.002-.007-.003-.012-.003-.02-.005-.01-.008-.027-.012-.04 0-.007-.003-.013-.005-.02l-.008-.04-.006-.023c-.004-.013-.006-.03-.007-.04l-.006-.023-.008-.04c-.003-.008-.005-.013-.006-.02l-.01-.042-.004-.018c-.004-.018-.005-.026-.01-.042 0-.008-.002-.015-.004-.022-.002-.012-.005-.026-.01-.04 0-.008-.002-.013-.004-.022 0-.013-.005-.025-.008-.04l-.004-.02c0-.013-.005-.027-.008-.04 0-.006-.004-.016-.004-.02l-.01-.04c0-.01-.004-.016-.004-.023l-.008-.04-.005-.022-.008-.04-.005-.024c-.004-.012-.005-.023-.01-.035l-.004-.026-.005-.04c-.003-.007-.003-.014-.007-.023 0-.013-.002-.022-.006-.036-.002-.007-.003-.018-.007-.028 0-.012-.003-.02-.007-.03l-.005-.032-.008-.033-.005-.025c-.002-.012-.006-.025-.007-.037-.002-.008-.006-.018-.006-.027-.004-.01-.007-.024-.01-.034 0-.01 0-.018-.003-.028 0-.01-.005-.024-.006-.034-.003-.01-.003-.02-.006-.028l-.007-.033-.007-.03-.005-.032-.007-.03-.007-.03c0-.01-.002-.018-.004-.025l-.007-.04c-.003-.006-.005-.016-.006-.023-.004-.014-.005-.024-.007-.038l-.012-.062-.016-.08-.008-.025c0-.015-.006-.038-.01-.053l-.005-.03-.01-.048-.007-.032c-.002-.016-.004-.033-.007-.045-.004-.014-.005-.024-.007-.038l-.01-.044c0-.01-.004-.024-.005-.034l-.01-.047-.008-.046c-.004-.02-.01-.046-.012-.063-.002-.01-.006-.023-.007-.033l-.007-.043-.007-.04c-.005-.014-.006-.024-.01-.04 0-.012-.005-.026-.007-.038 0-.013-.005-.027-.008-.04l-.007-.04-.007-.038c-.002-.014-.004-.028-.008-.04 0-.016-.005-.022-.006-.038-.002-.015-.006-.027-.01-.043-.002-.022-.006-.046-.01-.072l-.008-.037c-.003-.017-.003-.024-.007-.04l-.007-.04c-.002-.015-.006-.025-.007-.037-.002-.014-.006-.03-.01-.045 0-.01-.002-.018-.004-.03-.004-.015-.005-.032-.01-.048 0-.008-.002-.02-.006-.03 0-.016-.005-.032-.005-.047-.002-.01-.002-.017-.006-.03 0-.017-.005-.032-.008-.048l-.002-.007-.022-.125-.002-.014-.01-.052-.006-.026c0-.017-.005-.035-.008-.052-.002-.007-.004-.015-.005-.026 0-.017-.003-.034-.006-.05-.002-.008-.004-.015-.004-.024l-.01-.053-.003-.017c-.016-.09-.03-.18-.047-.268-.002-.004-.002-.01-.002-.014 0-.02-.005-.04-.008-.057-.002-.006-.004-.013-.004-.018l-.01-.058c0-.007-.002-.01-.003-.016l-.01-.062v-.01l-.06-.353v-.003l-.01-.067-.003-.01-.01-.068-.002-.002c-.415-2.598-.695-5.196-.845-7.788-.213-3.658-3.247-6.482-6.865-6.482-.135 0-.27.004-.406.01-3.794.223-6.692 3.476-6.472 7.27.246 4.234.793 8.494 1.626 12.665 4.708 23.564 18.786 44.79 39.644 59.77 1.215.87 2.62 1.29 4.01 1.29 2.142 0 4.25-.994 5.597-2.866 2.216-3.088 1.51-7.387-1.576-9.605" fill="#FFF" fill-rule="evenodd"/>
</svg>
